<?xml version="1.0" encoding="UTF-8" standalone="no"?>
<!-- Created with Inkscape (http://www.inkscape.org/) -->

<svg
   version="1.1"
   id="svg16396"
   width="800"
   height="800"
   viewBox="0 0 800 800"
   sodipodi:docname="propeller-ship-publicdomainvectors.org.svg"
   inkscape:version="1.2 (dc2aedaf03, 2022-05-15)"
   xmlns:inkscape="http://www.inkscape.org/namespaces/inkscape"
   xmlns:sodipodi="http://sodipodi.sourceforge.net/DTD/sodipodi-0.dtd"
   xmlns="http://www.w3.org/2000/svg"
   xmlns:svg="http://www.w3.org/2000/svg">
  <defs
     id="defs16400">
    <clipPath
       clipPathUnits="userSpaceOnUse"
       id="clipPath16412">
      <path
         d="M 0,600 H 600 V 0 H 0 Z"
         id="path16410" />
    </clipPath>
  </defs>
  <sodipodi:namedview
     id="namedview16398"
     pagecolor="#ffffff"
     bordercolor="#000000"
     borderopacity="0.25"
     inkscape:showpageshadow="2"
     inkscape:pageopacity="0.0"
     inkscape:pagecheckerboard="0"
     inkscape:deskcolor="#d1d1d1"
     showgrid="false"
     inkscape:zoom="1.04625"
     inkscape:cx="400"
     inkscape:cy="400.4779"
     inkscape:window-width="1920"
     inkscape:window-height="1017"
     inkscape:window-x="-8"
     inkscape:window-y="-8"
     inkscape:window-maximized="1"
     inkscape:current-layer="g16404">
    <inkscape:page
       x="0"
       y="0"
       id="page16402"
       width="800"
       height="800" />
  </sodipodi:namedview>
  <g
     id="g16404"
     inkscape:groupmode="layer"
     inkscape:label="Page 1"
     transform="matrix(1.3333333,0,0,-1.3333333,0,800)">
    <g
       id="g16406">
      <g
         id="g16408"
         clip-path="url(#clipPath16412)">
        <g
           id="g16414"
           transform="translate(469.1426,132.9102)">
          <path
             d="m 0,0 c 6.246,17.227 6.567,35.158 2.008,51.563 -21.483,81.867 -77.97,130.666 -156.088,158.257 -26.916,9.759 -56.649,-4.149 -66.408,-31.067 -7.783,-21.468 -0.509,-44.725 16.411,-58.213 29.009,-23.11 40.26,-53.333 39.493,-89.843 -0.746,-35.35 20.828,-68.812 55.916,-81.534 C -64.623,-66.806 -15.97,-44.046 0,0"
             style="fill:#5a75c3;fill-opacity:1;fill-rule:evenodd;stroke:none"
             id="path16416" />
        </g>
        <g
           id="g16418"
           transform="translate(253.3594,321.3701)">
          <path
             d="m 0,0 c -1.865,-3.006 -3.451,-6.248 -4.705,-9.707 -7.783,-21.468 -0.509,-44.725 16.411,-58.213 29.009,-23.11 40.26,-53.333 39.493,-89.843 -0.273,-12.952 2.452,-25.647 7.738,-37.165 31.149,48.221 38.947,104.564 30.479,166.286 C 85.76,-0.244 59.776,19.812 31.377,16.156 18.856,14.544 7.959,8.588 0,0"
             style="fill:#516cbe;fill-opacity:1;fill-rule:evenodd;stroke:none"
             id="path16420" />
        </g>
        <g
           id="g16422"
           transform="translate(356.9873,324.71)">
          <path
             d="m 0,0 c -13.142,6.818 -27.145,12.8 -41.925,18.021 -26.916,9.759 -56.649,-4.15 -66.408,-31.068 -7.783,-21.468 -0.509,-44.724 16.411,-58.213 9.789,-7.798 17.554,-16.408 23.519,-25.796 18.814,-2.717 38.654,2.595 53.935,16.258 C 8.833,-59.963 14.021,-26.427 0,0"
             style="fill:#516cbe;fill-opacity:1;fill-rule:evenodd;stroke:none"
             id="path16424" />
        </g>
        <g
           id="g16426"
           transform="translate(314.3008,176.9609)">
          <path
             d="M 0,0 C -0.398,6.273 4.365,11.683 10.64,12.08 16.912,12.479 22.32,7.715 22.719,1.442 l 0.049,-0.787 c 1.829,-29.099 3.357,-53.417 34.574,-64.735 5.906,-2.141 8.957,-8.664 6.816,-14.569 -2.14,-5.907 -8.663,-8.957 -14.569,-6.817 C 4.339,-69.059 2.386,-37.98 0.05,-0.788 Z m -6.027,32.357 c -1.985,5.944 1.225,12.372 7.17,14.355 5.944,1.983 12.372,-1.228 14.355,-7.171 0.791,-2.385 1.518,-4.641 2.181,-7.064 1.663,-6.068 -1.906,-12.333 -7.971,-13.997 -6.065,-1.664 -12.331,1.906 -13.995,7.971 -0.531,1.945 -1.107,4.002 -1.74,5.906"
             style="fill:#4b65b9;fill-opacity:1;fill-rule:evenodd;stroke:none"
             id="path16428" />
        </g>
        <g
           id="g16430"
           transform="translate(319.043,137.668)">
          <path
             d="m 0,0 c 7.581,13.578 13.446,27.751 17.734,42.464 -1.181,5.395 -6.155,9.27 -11.837,8.909 -6.274,-0.397 -11.038,-5.807 -10.639,-12.08 l 0.05,-0.788 C -3.823,24.679 -3.007,11.698 0,0 m -10.77,71.65 c -1.984,5.944 1.226,12.371 7.171,14.355 5.944,1.983 12.371,-1.228 14.355,-7.171 0.791,-2.385 1.517,-4.641 2.18,-7.064 C 14.6,65.702 11.031,59.436 4.966,57.773 -1.1,56.109 -7.365,59.679 -9.029,65.744 c -0.532,1.944 -1.107,4.002 -1.741,5.906"
             style="fill:#435cb3;fill-opacity:1;fill-rule:evenodd;stroke:none"
             id="path16432" />
        </g>
        <g
           id="g16434"
           transform="translate(447.042,114.0977)">
          <path
             d="m 0,0 c 41.505,50.141 -3.74,129.277 -43.716,166.256 -4.602,4.262 -11.788,3.986 -16.051,-0.617 -4.26,-4.602 -3.985,-11.789 0.618,-16.051 30.294,-28.024 73.924,-96.014 41.612,-135.051 -4.015,-4.843 -3.342,-12.023 1.5,-16.038 C -11.193,-5.514 -4.013,-4.843 0,0 m -34.488,-23.421 c -5.977,-1.947 -12.401,1.32 -14.348,7.297 -1.946,5.978 1.319,12.401 7.298,14.348 1.752,0.573 3.528,1.223 5.21,1.977 5.715,2.571 12.433,0.022 15.005,-5.694 2.571,-5.715 0.02,-12.434 -5.695,-15.005 -2.451,-1.101 -4.914,-2.088 -7.47,-2.923"
             style="fill:#718bcf;fill-opacity:1;fill-rule:evenodd;stroke:none"
             id="path16436" />
        </g>
        <g
           id="g16438"
           transform="translate(198.2095,81.2705)">
          <path
             d="m 0,0 c 18.314,-0.617 35.466,4.62 49.66,14.024 71.221,45.73 100.175,114.533 102.277,197.353 0.964,28.615 -21.452,52.595 -50.067,53.559 C 79.046,265.704 59.176,251.599 51.578,231.339 38.562,196.607 13.295,176.568 -21.664,166.015 -55.516,155.8 -80.673,124.942 -81.929,87.641 -83.506,40.815 -46.825,1.578 0,0"
             style="fill:#5a75c3;fill-opacity:1;fill-rule:evenodd;stroke:none"
             id="path16440" />
        </g>
        <g
           id="g16442"
           transform="translate(310.7656,344.7314)">
          <path
             d="m 0,0 c -3.436,0.845 -7.01,1.351 -10.686,1.475 -22.824,0.768 -42.694,-13.337 -50.293,-33.597 -13.015,-34.731 -38.282,-54.77 -73.242,-65.324 -12.401,-3.741 -23.634,-10.258 -32.953,-18.844 55.484,-14.723 111.48,-4.728 167.564,22.398 25.878,12.252 36.923,43.164 24.67,69.042 C 19.658,-13.44 10.626,-4.916 0,0"
             style="fill:#516cbe;fill-opacity:1;fill-rule:evenodd;stroke:none"
             id="path16444" />
        </g>
        <g
           id="g16446"
           transform="translate(345.9639,247.207)">
          <path
             d="M 0,0 C 2.424,14.603 3.786,29.77 4.183,45.44 5.146,74.056 -17.27,98.035 -45.885,98.999 -68.708,99.768 -88.578,85.662 -96.177,65.402 -100.569,53.683 -106.358,43.637 -113.442,35.063 -110.214,16.33 -99.03,-0.898 -81.315,-11.208 -54.3,-26.93 -20.801,-21.501 0,0"
             style="fill:#516cbe;fill-opacity:1;fill-rule:evenodd;stroke:none"
             id="path16448" />
        </g>
        <g
           id="g16450"
           transform="translate(192.2549,242.1455)">
          <path
             d="m 0,0 c 5.844,2.318 12.46,-0.539 14.777,-6.384 2.318,-5.843 -0.541,-12.458 -6.384,-14.777 L 7.66,-21.45 c -27.112,-10.733 -49.765,-19.699 -50.884,-52.887 -0.211,-6.277 -5.472,-11.195 -11.75,-10.983 -6.277,0.211 -11.195,5.471 -10.984,11.75 1.62,48.105 30.575,59.566 65.225,73.28 z m 28.91,15.732 c 5.041,3.725 12.146,2.657 15.869,-2.383 3.724,-5.04 2.657,-12.145 -2.383,-15.87 -2.023,-1.489 -3.946,-2.875 -6.046,-4.255 -5.255,-3.457 -12.318,-2 -15.774,3.256 -3.456,5.254 -1.999,12.316 3.256,15.773 1.686,1.107 3.465,2.289 5.078,3.479"
             style="fill:#4b65b9;fill-opacity:1;fill-rule:evenodd;stroke:none"
             id="path16452" />
        </g>
        <g
           id="g16454"
           transform="translate(156.3516,225.4941)">
          <path
             d="m 0,0 c 15.255,-3.013 30.547,-4.213 45.865,-3.743 4.766,2.79 6.914,8.718 4.816,14.011 -2.318,5.844 -8.934,8.702 -14.778,6.383 L 35.17,16.361 C 22.288,11.263 10.195,6.475 0,0 m 64.813,32.384 c 5.041,3.724 12.146,2.656 15.87,-2.384 3.723,-5.04 2.656,-12.145 -2.384,-15.87 -2.023,-1.488 -3.945,-2.875 -6.046,-4.255 -5.255,-3.457 -12.317,-2 -15.774,3.256 -3.456,5.255 -1.999,12.316 3.256,15.773 1.686,1.108 3.465,2.289 5.078,3.48"
             style="fill:#435cb3;fill-opacity:1;fill-rule:evenodd;stroke:none"
             id="path16456" />
        </g>
        <g
           id="g16458"
           transform="translate(173.4893,96.4756)">
          <path
             d="m 0,0 c 60.513,-23.979 121.792,43.507 144.609,92.953 2.63,5.694 0.148,12.443 -5.547,15.074 -5.694,2.632 -12.443,0.148 -15.075,-5.547 C 106.697,65.012 55.517,2.505 8.406,21.173 2.559,23.493 -4.062,20.636 -6.383,14.789 -8.705,8.943 -5.847,2.322 0,0 m -32.932,25.563 c -3.699,5.083 -2.577,12.202 2.505,15.901 5.083,3.699 12.202,2.577 15.901,-2.505 1.086,-1.49 2.253,-2.98 3.49,-4.345 4.211,-4.641 3.863,-11.818 -0.778,-16.031 -4.642,-4.211 -11.819,-3.862 -16.031,0.779 -1.803,1.99 -3.504,4.029 -5.087,6.201"
             style="fill:#718bcf;fill-opacity:1;fill-rule:evenodd;stroke:none"
             id="path16460" />
        </g>
        <g
           id="g16462"
           transform="translate(65.375,322.9863)">
          <path
             d="m 0,0 c 5.072,-17.608 15.352,-32.304 28.684,-42.896 65.499,-53.604 139.882,-59.879 219.298,-36.287 27.512,7.927 43.391,36.657 35.465,64.168 -6.321,21.944 -25.876,36.483 -47.493,37.45 -37.054,1.646 -63.921,19.482 -84.76,49.471 -20.175,29.037 -57.297,43.427 -93.161,33.096 C 13.013,92.032 -12.97,45.021 0,0"
             style="fill:#5a75c3;fill-opacity:1;fill-rule:evenodd;stroke:none"
             id="path16464" />
        </g>
        <g
           id="g16466"
           transform="translate(350.7207,297.3535)">
          <path
             d="m 0,0 c -0.257,3.528 -0.88,7.083 -1.898,10.618 -6.322,21.945 -25.876,36.483 -47.494,37.449 -37.053,1.646 -63.92,19.483 -84.759,49.472 -7.392,10.637 -17.059,19.307 -28.105,25.518 3.144,-57.319 29.951,-107.486 73.082,-152.442 19.65,-20.827 52.461,-21.779 73.285,-2.129 C -6.706,-22.851 -1.391,-11.626 0,0"
             style="fill:#516cbe;fill-opacity:1;fill-rule:evenodd;stroke:none"
             id="path16468" />
        </g>
        <g
           id="g16470"
           transform="translate(268.8477,233.7402)">
          <path
             d="M 0,0 C 14.64,2.207 29.483,5.601 44.51,10.064 72.021,17.99 87.9,46.72 79.975,74.231 73.653,96.176 54.099,110.714 32.481,111.681 19.977,112.236 8.635,114.638 -1.708,118.726 -18.527,109.866 -31.456,93.906 -35.787,73.871 -42.391,43.32 -26.877,13.139 0,0"
             style="fill:#516cbe;fill-opacity:1;fill-rule:evenodd;stroke:none"
             id="path16472" />
        </g>
        <g
           id="g16474"
           transform="translate(216.5361,378.3628)">
          <path
             d="m 0,0 -0.503,0.607 c -23.751,28.717 -43.599,52.712 -89.851,39.388 -6.036,-1.739 -9.518,-8.042 -7.779,-14.077 1.739,-6.037 8.041,-9.52 14.078,-7.781 31.908,9.193 47.437,-9.583 66.02,-32.05 l 0.503,-0.609 c 4.01,-4.84 11.185,-5.514 16.027,-1.505 C 3.335,-12.018 4.01,-4.841 0,0 m 23.896,-22.635 c 5.099,-3.642 6.279,-10.73 2.636,-15.827 -3.643,-5.1 -10.729,-6.28 -15.828,-2.638 -2.042,1.464 -3.956,2.863 -5.917,4.435 -4.911,3.929 -5.707,11.096 -1.777,16.008 3.929,4.911 11.095,5.706 16.007,1.777 1.573,-1.261 3.248,-2.587 4.879,-3.755"
             style="fill:#4b65b9;fill-opacity:1;fill-rule:evenodd;stroke:none"
             id="path16476" />
        </g>
        <g
           id="g16478"
           transform="translate(189.6045,407.3633)">
          <path
             d="m 0,0 c 1.848,-15.44 5.433,-30.353 10.611,-44.777 4.129,-3.671 10.43,-3.883 14.816,-0.25 4.84,4.009 5.514,11.185 1.505,16.027 l -0.503,0.607 C 17.599,-17.717 9.308,-7.696 0,0 m 50.827,-51.635 c 5.1,-3.642 6.279,-10.73 2.637,-15.828 -3.644,-5.1 -10.73,-6.279 -15.828,-2.638 -2.042,1.464 -3.956,2.864 -5.917,4.435 -4.911,3.93 -5.707,11.097 -1.778,16.008 3.929,4.911 11.096,5.707 16.007,1.778 1.574,-1.261 3.248,-2.587 4.879,-3.755"
             style="fill:#435cb3;fill-opacity:1;fill-rule:evenodd;stroke:none"
             id="path16480" />
        </g>
        <g
           id="g16482"
           transform="translate(72.1958,351.1953)">
          <path
             d="M 0,0 C 0.401,6.277 5.815,11.042 12.093,10.641 18.371,10.239 23.135,4.825 22.734,-1.452 19.537,-52.025 94.8,-81.385 135.779,-86.251 c 6.23,-0.743 10.677,-6.394 9.934,-12.623 -0.742,-6.228 -6.394,-10.677 -12.623,-9.935 C 79.013,-102.388 -4.105,-64.96 0,0 m 14.136,39.22 c 3.691,5.089 10.808,6.221 15.897,2.531 5.088,-3.692 6.221,-10.809 2.53,-15.897 -1.081,-1.493 -2.136,-3.063 -3.053,-4.662 -3.113,-5.44 -10.046,-7.326 -15.486,-4.214 -5.44,3.113 -7.326,10.047 -4.213,15.487 1.336,2.331 2.748,4.578 4.325,6.755"
             style="fill:#718bcf;fill-opacity:1;fill-rule:evenodd;stroke:none"
             id="path16484" />
        </g>
        <g
           id="g16486"
           transform="translate(254.2109,524.0137)">
          <path
             d="m 0,0 c -15.179,-10.266 -25.978,-24.584 -31.932,-40.535 -30.74,-78.858 -13.723,-151.54 33.257,-219.778 16.039,-23.716 48.27,-29.941 71.987,-13.901 18.916,12.794 26.7,35.884 20.94,56.741 -9.887,35.748 -1.225,66.812 20.857,95.899 21.382,28.161 23.596,67.912 2.688,98.828 C 91.549,16.063 38.81,26.247 0,0"
             style="fill:#5a75c3;fill-opacity:1;fill-rule:evenodd;stroke:none"
             id="path16488" />
        </g>
        <g
           id="g16490"
           transform="translate(318.0098,244.7119)">
          <path
             d="m 0,0 c 3.277,1.336 6.465,3.027 9.513,5.088 18.916,12.794 26.7,35.884 20.94,56.741 -9.887,35.748 -1.224,66.812 20.857,95.899 7.832,10.316 13.09,22.191 15.583,34.614 C 13.352,171.64 -26.074,130.642 -55.503,75.73 -69.237,50.606 -60.005,19.107 -34.881,5.374 -23.804,-0.682 -11.486,-2.27 0,0"
             style="fill:#516cbe;fill-opacity:1;fill-rule:evenodd;stroke:none"
             id="path16492" />
        </g>
        <g
           id="g16494"
           transform="translate(232.2109,302.9219)">
          <path
             d="m 0,0 c 6.623,-13.241 14.436,-26.312 23.325,-39.222 16.04,-23.716 48.27,-29.94 71.987,-13.9 18.916,12.794 26.7,35.884 20.94,56.741 -3.337,12.064 -4.558,23.593 -3.865,34.694 C 98.763,51.57 79.588,58.934 59.195,56.862 28.1,53.702 4.189,29.621 0,0"
             style="fill:#516cbe;fill-opacity:1;fill-rule:evenodd;stroke:none"
             id="path16496" />
        </g>
        <g
           id="g16498"
           transform="translate(353.5889,397.3628)">
          <path
             d="m 0,0 c -3.364,-5.309 -10.398,-6.885 -15.707,-3.521 -5.31,3.365 -6.886,10.398 -3.521,15.708 l 0.422,0.666 C -3.179,37.47 9.878,58.04 -8.725,85.546 c -3.518,5.203 -2.154,12.274 3.049,15.794 5.203,3.519 12.274,2.154 15.793,-3.05 C 37.082,58.42 20.393,32.128 0.423,0.667 Z m -14.142,-29.721 c -1.889,-5.974 -8.264,-9.287 -14.24,-7.399 -5.973,1.89 -9.287,8.265 -7.398,14.24 0.761,2.394 1.501,4.647 2.388,6.998 2.22,5.884 8.791,8.856 14.676,6.636 5.885,-2.218 8.857,-8.789 6.637,-14.673 -0.712,-1.887 -1.458,-3.889 -2.063,-5.802"
             style="fill:#4b65b9;fill-opacity:1;fill-rule:evenodd;stroke:none"
             id="path16500" />
        </g>
        <g
           id="g16502"
           transform="translate(372.8477,431.9385)">
          <path
             d="m 0,0 c -14.114,-6.529 -27.189,-14.547 -39.307,-23.93 -2.215,-5.06 -0.469,-11.118 4.341,-14.166 5.31,-3.365 12.343,-1.789 15.707,3.52 l 0.423,0.667 C -11.411,-22.213 -4.443,-11.231 0,0 m -33.4,-64.296 c -1.89,-5.975 -8.265,-9.287 -14.241,-7.399 -5.973,1.889 -9.287,8.264 -7.398,14.239 0.762,2.394 1.501,4.647 2.389,6.998 2.219,5.885 8.791,8.856 14.675,6.637 5.885,-2.219 8.857,-8.789 6.637,-14.674 -0.712,-1.886 -1.458,-3.889 -2.062,-5.801"
             style="fill:#435cb3;fill-opacity:1;fill-rule:evenodd;stroke:none"
             id="path16504" />
        </g>
        <g
           id="g16506"
           transform="translate(283.1475,526.2432)">
          <path
             d="m 0,0 c 6.095,1.559 12.299,-2.119 13.858,-8.212 1.558,-6.095 -2.12,-12.299 -8.215,-13.857 -49.084,-12.588 -53.749,-93.241 -45.714,-133.717 1.218,-6.154 -2.783,-12.13 -8.936,-13.349 -6.153,-1.219 -12.13,2.782 -13.348,8.936 C -72.959,-106.785 -63.049,-16.169 0,0 m 41.669,-1.324 c 5.98,-1.938 9.257,-8.357 7.318,-14.337 -1.937,-5.98 -8.355,-9.256 -14.337,-7.319 -1.753,0.567 -3.571,1.085 -5.376,1.463 -6.135,1.28 -10.072,7.291 -8.793,13.427 1.279,6.135 7.29,10.072 13.426,8.793 2.63,-0.551 5.203,-1.2 7.762,-2.027"
             style="fill:#718bcf;fill-opacity:1;fill-rule:evenodd;stroke:none"
             id="path16508" />
        </g>
        <g
           id="g16510"
           transform="translate(245.8555,288.2744)">
          <path
             d="m 0,0 0.003,-0.02 0.001,-0.011 0.002,-0.011 0.001,-0.012 c 0.025,-0.221 0.052,-0.444 0.08,-0.667 l 0.001,-0.011 0.002,-0.011 0.046,-0.356 0.001,-0.008 0.002,-0.01 0.002,-0.009 v -0.01 l 0.002,-0.007 0.001,-0.01 0.069,-0.496 0.001,-0.009 0.002,-0.01 0.001,-0.009 0.001,-0.008 0.062,-0.415 0.001,-0.009 0.002,-0.01 0.001,-0.01 0.001,-0.009 0.002,-0.009 c 0.027,-0.178 0.056,-0.357 0.086,-0.536 l 0.001,-0.009 0.002,-0.01 0.002,-0.01 0.055,-0.323 0.002,-0.012 0.001,-0.012 0.002,-0.011 c 0.04,-0.23 0.08,-0.459 0.124,-0.687 L 0.563,-3.768 0.564,-3.773 0.565,-3.778 0.566,-3.783 0.567,-3.788 0.568,-3.793 0.569,-3.799 0.613,-4.026 0.614,-4.031 0.615,-4.036 V -4.041 L 0.617,-4.046 0.618,-4.052 0.619,-4.057 0.62,-4.06 v -0.005 l 0.002,-0.005 0.001,-0.006 0.001,-0.005 0.001,-0.005 0.001,-0.008 0.001,-0.009 0.003,-0.009 0.1,-0.505 0.001,-0.009 0.003,-0.01 0.002,-0.009 0.001,-0.007 0.001,-0.004 0.065,-0.311 v -0.001 l 0.003,-0.011 c 0.049,-0.239 0.101,-0.476 0.156,-0.712 l 0.002,-0.012 0.003,-0.013 0.002,-0.011 0.066,-0.287 0.003,-0.007 0.002,-0.01 0.003,-0.008 0.001,-0.01 0.006,-0.025 0.003,-0.009 c 0.036,-0.155 0.073,-0.31 0.111,-0.464 L 1.166,-6.556 1.168,-6.564 1.17,-6.573 1.171,-6.579 1.245,-6.881 1.248,-6.893 C 1.306,-7.121 1.365,-7.349 1.426,-7.576 L 1.43,-7.588 1.432,-7.6 1.435,-7.61 1.438,-7.622 1.522,-7.934 1.525,-7.942 1.527,-7.952 1.53,-7.962 1.533,-7.971 C 1.582,-8.146 1.63,-8.321 1.68,-8.495 L 1.683,-8.504 1.686,-8.514 1.688,-8.523 1.69,-8.532 1.693,-8.542 1.767,-8.8 1.771,-8.81 1.773,-8.821 1.776,-8.832 c 0.062,-0.209 0.125,-0.416 0.189,-0.624 l 0.004,-0.01 0.002,-0.011 0.004,-0.01 0.103,-0.335 0.002,-0.005 0.003,-0.01 c 0.063,-0.198 0.127,-0.395 0.191,-0.593 l 0.003,-0.009 0.003,-0.01 0.004,-0.01 v -0.003 l 0.112,-0.331 0.002,-0.012 0.004,-0.008 0.006,-0.018 0.003,-0.009 c 0.054,-0.16 0.11,-0.319 0.164,-0.479 l 0.003,-0.009 0.004,-0.009 0.003,-0.009 0.003,-0.008 0.003,-0.009 0.003,-0.009 0.105,-0.297 v -0.003 l 0.005,-0.012 c 0.083,-0.235 0.169,-0.469 0.257,-0.704 l 0.004,-0.01 0.002,-0.006 0.096,-0.253 0.003,-0.009 0.003,-0.01 0.004,-0.009 0.007,-0.017 0.004,-0.009 0.003,-0.01 c 0.063,-0.166 0.128,-0.333 0.193,-0.499 l 0.003,-0.008 0.004,-0.009 0.095,-0.242 0.003,-0.006 0.004,-0.011 c 0.096,-0.242 0.195,-0.483 0.296,-0.724 l 0.003,-0.006 0.109,-0.256 0.003,-0.012 0.004,-0.008 0.005,-0.01 0.004,-0.009 c 0.072,-0.172 0.145,-0.342 0.22,-0.512 l 0.004,-0.012 0.004,-0.008 0.005,-0.01 0.004,-0.009 0.004,-0.01 0.004,-0.01 0.083,-0.188 0.005,-0.011 0.004,-0.013 c 0.101,-0.226 0.205,-0.455 0.309,-0.68 l 0.006,-0.011 0.005,-0.013 0.006,-0.01 0.114,-0.246 0.004,-0.01 0.006,-0.012 0.005,-0.01 c 0.099,-0.214 0.201,-0.426 0.304,-0.639 l 0.005,-0.011 0.005,-0.011 H 4.92 l 0.09,-0.183 v -10e-4 l 0.005,-0.009 0.005,-0.012 c 0.099,-0.202 0.201,-0.405 0.304,-0.608 l 0.006,-0.009 0.004,-0.011 0.003,-0.006 0.114,-0.224 0.002,-0.002 0.007,-0.011 0.005,-0.013 c 0.119,-0.231 0.24,-0.461 0.362,-0.69 l 0.006,-0.012 0.007,-0.011 0.001,-0.003 0.073,-0.135 0.005,-0.008 c 0.114,-0.211 0.228,-0.42 0.344,-0.629 l 0.006,-0.009 0.005,-0.01 0.006,-0.011 0.094,-0.167 0.001,-0.002 0.007,-0.011 0.006,-0.011 c 0.125,-0.222 0.253,-0.446 0.381,-0.666 l 0.006,-0.011 0.007,-0.011 0.007,-0.011 0.12,-0.205 0.006,-0.01 0.005,-0.009 c 0.112,-0.19 0.224,-0.377 0.339,-0.563 l 0.006,-0.012 0.005,-0.008 0.006,-0.009 0.094,-0.157 0.008,-0.01 c 0.141,-0.231 0.283,-0.458 0.427,-0.684 l 0.008,-0.012 0.006,-0.01 0.002,-0.004 0.112,-0.174 0.001,-0.002 0.007,-0.012 0.007,-0.011 0.007,-0.01 c 0.139,-0.216 0.279,-0.433 0.422,-0.646 l 0.007,-0.011 0.029,-0.044 0.01,-0.014 0.008,-0.011 c 0.148,-0.224 0.3,-0.445 0.452,-0.667 l 0.008,-0.011 0.007,-0.011 0.002,-0.002 0.133,-0.192 0.002,-0.004 0.008,-0.011 c 0.154,-0.22 0.31,-0.44 0.467,-0.658 l 0.008,-0.011 0.006,-0.01 0.003,-0.005 0.086,-0.116 0.007,-0.01 0.007,-0.009 0.007,-0.01 0.007,-0.008 c 0.133,-0.186 0.268,-0.368 0.405,-0.549 l 0.007,-0.01 0.007,-0.01 0.002,-0.003 0.131,-0.174 0.008,-0.011 0.008,-0.01 0.009,-0.011 c 0.157,-0.209 0.316,-0.417 0.477,-0.623 l 0.009,-0.01 0.008,-0.012 0.002,-0.002 0.104,-0.132 0.007,-0.01 0.008,-0.009 0.007,-0.008 0.007,-0.01 c 0.141,-0.178 0.282,-0.357 0.425,-0.532 l 0.007,-0.009 0.008,-0.009 0.003,-0.004 0.115,-0.142 0.009,-0.01 c 0.172,-0.213 0.348,-0.422 0.524,-0.631 l 0.009,-0.012 0.008,-0.01 0.121,-0.141 0.009,-0.012 0.009,-0.01 c 0.177,-0.207 0.354,-0.413 0.535,-0.618 l 0.03,-0.036 0.009,-0.01 0.01,-0.009 0.009,-0.011 c 0.182,-0.208 0.369,-0.415 0.556,-0.62 l 0.009,-0.011 0.149,-0.162 0.009,-0.01 c 0.191,-0.208 0.382,-0.412 0.575,-0.614 l 0.009,-0.012 0.01,-0.009 0.008,-0.007 0.027,-0.031 0.01,-0.008 0.009,-0.009 0.008,-0.01 c 0.179,-0.187 0.359,-0.371 0.539,-0.555 l 0.01,-0.01 0.009,-0.009 0.009,-0.01 0.127,-0.127 0.005,-0.006 0.009,-0.01 c 0.204,-0.205 0.409,-0.408 0.615,-0.609 l 0.005,-0.004 0.103,-0.1 0.01,-0.009 c 0.181,-0.174 0.362,-0.347 0.545,-0.519 l 0.009,-0.009 0.008,-0.007 0.121,-0.116 0.002,-10e-4 0.01,-0.009 0.011,-0.01 c 0.205,-0.192 0.41,-0.379 0.619,-0.568 l 0.01,-0.008 0.011,-0.009 0.003,-0.005 0.108,-0.095 0.005,-0.005 0.01,-0.007 c 0.188,-0.169 0.377,-0.337 0.569,-0.501 l 0.01,-0.01 0.008,-0.007 0.118,-0.103 10e-4,-10e-4 0.01,-0.009 c 0.214,-0.183 0.429,-0.366 0.647,-0.547 l 0.01,-0.01 0.008,-0.006 0.145,-0.121 0.012,-0.009 0.01,-0.007 c 0.223,-0.185 0.446,-0.367 0.67,-0.546 l 0.013,-0.01 c 0.446,-0.356 0.89,-0.712 1.327,-1.072 l 0.017,-0.014 0.003,-0.003 0.023,-0.02 0.02,-0.016 c 0.419,-0.343 0.834,-0.688 1.245,-1.035 l 0.058,-0.05 c 0.401,-0.337 0.797,-0.678 1.191,-1.019 l 0.017,-0.016 h 10e-4 l 0.119,-0.104 0.019,-0.015 c 0.375,-0.327 0.747,-0.656 1.116,-0.985 l 0.017,-0.015 0.005,-0.004 0.12,-0.109 0.009,-0.008 0.01,-0.008 0.01,-0.008 0.01,-0.01 0.01,-0.01 0.008,-0.008 0.01,-0.008 0.011,-0.01 0.019,-0.019 0.01,-0.007 0.39,-0.355 0.01,-0.008 0.009,-0.009 0.01,-0.01 0.011,-0.009 0.01,-0.008 0.009,-0.009 0.01,-0.009 0.009,-0.01 0.01,-0.008 0.01,-0.008 0.009,-0.009 0.01,-0.009 0.01,-0.008 c -1.842,1.097 -3.637,2.32 -5.372,3.672 C 7.987,-27.02 1.257,-13.775 0,0 m 46.127,57.287 c 0.183,0.019 0.365,0.036 0.548,0.054 z m 211.771,60.979 c -14.453,11.264 -31.408,17.11 -48.419,17.843 -81.228,4.679 -143.387,-30.856 -192.832,-92.037 2.146,1.95 4.446,3.708 6.87,5.263 l 0.043,0.026 c 0.705,0.453 1.421,0.886 2.147,1.304 l 0.09,0.051 c 0.721,0.412 1.45,0.806 2.19,1.183 l 0.077,0.04 c 0.245,0.124 0.491,0.247 0.737,0.368 l 0.05,0.022 c 0.743,0.362 1.496,0.707 2.255,1.032 l 0.183,0.079 c 0.712,0.301 1.431,0.588 2.156,0.859 l 0.283,0.103 c 0.7,0.258 1.407,0.499 2.12,0.727 l 0.318,0.1 c 0.213,0.066 0.426,0.131 0.64,0.195 0.121,0.036 0.243,0.072 0.366,0.106 0.357,0.103 0.716,0.203 1.075,0.298 0.13,0.035 0.263,0.071 0.396,0.106 0.202,0.052 0.407,0.103 0.612,0.153 0.142,0.035 0.285,0.068 0.428,0.103 0.315,0.074 0.631,0.145 0.947,0.214 0.173,0.036 0.347,0.075 0.517,0.11 0.186,0.038 0.371,0.074 0.554,0.11 0.182,0.035 0.362,0.068 0.543,0.102 0.173,0.033 0.346,0.063 0.518,0.094 0.305,0.052 0.611,0.103 0.917,0.15 0.176,0.027 0.352,0.052 0.53,0.077 0.186,0.026 0.368,0.052 0.554,0.077 0.17,0.023 0.342,0.045 0.511,0.066 0.286,0.035 0.568,0.067 0.853,0.097 0.183,0.019 0.365,0.036 0.548,0.054 0.22,0.021 0.44,0.041 0.661,0.058 0.158,0.015 0.316,0.027 0.474,0.039 0.255,0.017 0.511,0.034 0.769,0.048 0.16,0.009 0.322,0.019 0.484,0.027 0.287,0.013 0.574,0.025 0.861,0.034 0.141,0.005 0.281,0.008 0.421,0.012 0.256,0.006 0.511,0.008 0.766,0.011 0.119,10e-4 0.235,0.003 0.351,0.003 0.35,10e-4 0.698,-0.003 1.05,-0.009 l 0.37,-0.01 c 0.268,-0.007 0.535,-0.016 0.805,-0.027 0.118,-0.004 0.234,-0.008 0.35,-0.015 0.357,-0.017 0.711,-0.037 1.068,-0.063 0.106,-0.007 0.212,-0.016 0.319,-0.023 0.276,-0.022 0.554,-0.045 0.83,-0.071 0.125,-0.01 0.249,-0.022 0.374,-0.034 0.36,-0.037 0.722,-0.075 1.085,-0.119 l 0.184,-0.023 c 0.319,-0.04 0.636,-0.083 0.953,-0.128 l 0.348,-0.052 c 0.319,-0.048 0.634,-0.098 0.951,-0.151 l 0.194,-0.033 c 0.367,-0.063 0.733,-0.131 1.1,-0.204 l 0.336,-0.067 c 0.297,-0.061 0.594,-0.124 0.89,-0.189 l 0.264,-0.057 c 0.37,-0.085 0.741,-0.173 1.112,-0.266 l 0.271,-0.069 c 0.3,-0.077 0.601,-0.157 0.903,-0.239 l 0.299,-0.083 c 0.369,-0.104 0.738,-0.212 1.108,-0.325 l 0.209,-0.065 c 0.31,-0.097 0.622,-0.197 0.936,-0.299 l 0.316,-0.106 c 0.375,-0.126 0.747,-0.255 1.12,-0.39 1.212,-0.428 2.417,-0.86 3.617,-1.299 l 0.065,-0.023 c 1.182,-0.433 2.359,-0.868 3.533,-1.311 l 0.092,-0.035 c 1.158,-0.436 2.312,-0.878 3.461,-1.325 l 0.13,-0.051 c 1.145,-0.446 2.286,-0.897 3.421,-1.353 l 0.166,-0.067 c 1.1,-0.442 2.193,-0.888 3.282,-1.34 l 0.289,-0.121 c 1.05,-0.436 2.096,-0.877 3.138,-1.322 l 0.362,-0.154 c 1.017,-0.437 2.029,-0.877 3.038,-1.323 l 0.496,-0.219 c 0.972,-0.431 1.939,-0.865 2.9,-1.303 l 0.526,-0.239 c 0.951,-0.436 1.899,-0.875 2.843,-1.318 l 0.543,-0.256 c 0.918,-0.434 1.831,-0.872 2.741,-1.311 l 0.672,-0.327 c 0.882,-0.43 1.759,-0.862 2.632,-1.299 l 0.68,-0.341 c 0.873,-0.438 1.742,-0.881 2.608,-1.327 l 0.657,-0.34 0.033,-0.016 V 36.435 C 144.27,19.239 171.903,-3.3 192.591,-32.46 c 29.452,-4.6 60.451,6.485 80.076,31.666 28.799,36.956 22.187,90.261 -14.769,119.06"
             style="fill:#5a75c3;fill-opacity:1;fill-rule:evenodd;stroke:none"
             id="path16512" />
        </g>
        <g
           id="g16514"
           transform="translate(438.4463,255.8125)">
          <path
             d="M 0,0 C 7.634,-1.191 15.373,-1.328 22.991,-0.439 -4.128,32.883 -39.616,55.172 -81.459,68.897 v 0 C -48.321,51.698 -20.686,29.161 0,0 m -180.609,3.742 c 2.283,-2.701 4.876,-5.212 7.778,-7.474 1.735,-1.352 3.53,-2.576 5.372,-3.672 l -0.01,0.008 -0.01,0.009 -0.009,0.009 -0.01,0.008 -0.01,0.008 -0.009,0.01 -0.009,0.009 -0.01,0.009 -0.01,0.008 -0.011,0.009 -0.009,0.009 -0.01,0.01 -0.01,0.008 -0.39,0.354 -0.009,0.008 -0.02,0.019 -0.011,0.01 -0.009,0.007 -0.009,0.009 -0.01,0.01 -0.01,0.01 -0.01,0.008 -0.01,0.008 -0.009,0.008 -0.12,0.109 -0.005,0.003 -0.017,0.016 c -0.369,0.329 -0.741,0.658 -1.116,0.984 l -0.018,0.016 -0.12,0.104 v 0 l -0.018,0.016 c -0.394,0.341 -0.79,0.682 -1.19,1.019 l -0.059,0.049 c -0.411,0.348 -0.826,0.693 -1.245,1.036 l -0.02,0.016 -0.023,0.02 -0.003,0.003 -0.017,0.013 c -0.437,0.361 -0.881,0.717 -1.327,1.073 -0.261,0.208 -0.517,0.417 -0.773,0.63 l -0.013,0.008 v 10e-4 h -0.001 l -0.012,0.01 c -0.248,0.206 -0.493,0.415 -0.737,0.624 l -0.023,0.02 -0.019,0.017 -0.012,0.01 c -0.233,0.201 -0.464,0.405 -0.693,0.61 l -0.011,0.011 h -0.002 l -0.037,0.035 -0.012,0.01 -0.01,0.011 c -0.226,0.202 -0.45,0.408 -0.673,0.616 l -0.011,0.01 -0.017,0.016 -0.003,0.003 -0.022,0.021 -0.011,0.009 c -0.214,0.203 -0.427,0.404 -0.637,0.609 l -0.011,0.009 -0.002,0.003 -0.089,0.085 -0.006,0.006 -0.01,0.01 c -0.205,0.199 -0.407,0.399 -0.608,0.603 l -0.01,0.01 -0.076,0.077 -0.005,0.006 -0.009,0.007 c -0.19,0.195 -0.379,0.388 -0.565,0.583 l -0.01,0.01 -0.14,0.148 -0.01,0.009 c -0.161,0.172 -0.322,0.342 -0.481,0.515 l -0.007,0.009 -0.008,0.008 -0.008,0.008 -0.195,0.213 -0.008,0.009 -0.007,0.008 -0.007,0.009 -0.007,0.008 c -0.139,0.152 -0.278,0.307 -0.416,0.461 l -0.006,0.009 -0.008,0.008 -0.009,0.009 -0.211,0.241 -0.004,0.004 -0.007,0.007 -0.006,0.008 c -0.129,0.147 -0.255,0.293 -0.381,0.441 l -0.007,0.008 -0.006,0.008 -0.007,0.008 -0.007,0.008 -0.007,0.007 -0.001,0.002 -0.225,0.266 -0.006,0.007 -0.007,0.007 -0.006,0.007 -0.007,0.009 c -0.122,0.146 -0.244,0.292 -0.365,0.439 l -0.007,0.009 -0.006,0.007 -0.006,0.007 -0.002,0.004 -0.243,0.297 -0.005,0.007 -0.006,0.007 -0.006,0.009 -0.006,0.007 -0.006,0.007 c -0.111,0.138 -0.223,0.278 -0.334,0.418 l -0.005,0.007 -0.006,0.006 -0.006,0.008 -0.22,0.283 -0.004,0.004 c 0.426,-0.873 0.874,-1.734 1.347,-2.581"
             style="fill:#516cbe;fill-opacity:1;fill-rule:evenodd;stroke:none"
             id="path16516" />
        </g>
        <g
           id="g16518"
           transform="translate(245.8555,288.2744)">
          <path
             d="m 0,0 c 1.257,-13.775 7.987,-27.02 19.76,-36.194 1.735,-1.352 3.53,-2.575 5.372,-3.672 l -0.01,0.008 -0.01,0.009 -0.009,0.009 -0.01,0.008 -0.01,0.008 -0.009,0.01 -0.01,0.009 -0.009,0.009 -0.01,0.008 -0.011,0.009 -0.01,0.01 -0.009,0.009 -0.01,0.008 -0.39,0.355 -0.01,0.007 -0.019,0.019 -0.011,0.01 -0.01,0.008 -0.008,0.008 -0.01,0.01 -0.01,0.01 -0.01,0.008 -0.01,0.008 -0.009,0.008 -0.12,0.109 -0.005,0.004 -0.017,0.015 c -0.369,0.329 -0.741,0.658 -1.116,0.985 l -0.019,0.015 -0.119,0.104 h -10e-4 l -0.017,0.016 c -0.394,0.341 -0.79,0.682 -1.191,1.019 l -0.058,0.05 c -0.411,0.347 -0.826,0.692 -1.245,1.035 l -0.02,0.016 -0.023,0.02 -0.003,0.003 -0.017,0.014 c -0.437,0.36 -0.881,0.716 -1.327,1.072 l -0.013,0.01 c -0.224,0.179 -0.447,0.361 -0.67,0.546 l -0.01,0.007 -0.012,0.009 -0.145,0.121 -0.008,0.006 -0.01,0.01 c -0.218,0.181 -0.433,0.364 -0.647,0.547 l -0.01,0.009 -10e-4,10e-4 -0.118,0.103 -0.008,0.007 -0.01,0.01 c -0.192,0.164 -0.381,0.332 -0.569,0.501 l -0.01,0.007 -0.005,0.005 -0.108,0.095 -0.003,0.005 -0.011,0.009 -0.01,0.008 c -0.209,0.189 -0.414,0.376 -0.619,0.568 l -0.011,0.01 -0.01,0.009 -0.002,10e-4 -0.121,0.116 -0.008,0.007 -0.009,0.009 c -0.183,0.172 -0.364,0.345 -0.545,0.519 l -0.01,0.009 -0.103,0.1 -0.005,0.004 c -0.206,0.201 -0.411,0.404 -0.615,0.609 l -0.009,0.01 -0.005,0.006 -0.127,0.127 -0.009,0.01 -0.009,0.009 -0.01,0.01 c -0.18,0.184 -0.36,0.368 -0.539,0.555 l -0.008,0.01 -0.009,0.009 -0.01,0.008 -0.027,0.031 -0.008,0.007 -0.01,0.009 -0.009,0.012 c -0.193,0.202 -0.384,0.406 -0.575,0.614 l -0.009,0.01 -0.149,0.162 -0.009,0.011 c -0.187,0.205 -0.374,0.412 -0.556,0.62 l -0.009,0.011 -0.01,0.009 -0.009,0.01 -0.03,0.036 c -0.181,0.205 -0.358,0.411 -0.535,0.618 l -0.009,0.01 -0.009,0.012 -0.121,0.141 -0.008,0.01 -0.009,0.012 c -0.176,0.209 -0.352,0.418 -0.524,0.631 l -0.009,0.01 -0.115,0.142 -0.003,0.004 -0.008,0.009 -0.007,0.009 c -0.143,0.175 -0.284,0.354 -0.425,0.532 l -0.007,0.01 -0.007,0.008 -0.008,0.009 -0.007,0.01 -0.104,0.132 -0.002,0.002 -0.008,0.012 -0.009,0.01 c -0.161,0.206 -0.32,0.414 -0.477,0.623 l -0.009,0.011 -0.008,0.01 -0.008,0.011 -0.131,0.174 -0.002,0.003 -0.007,0.01 -0.007,0.01 c -0.137,0.181 -0.272,0.363 -0.405,0.549 l -0.007,0.008 -0.007,0.01 -0.007,0.009 -0.007,0.01 -0.086,0.116 -0.003,0.005 -0.006,0.01 -0.008,0.011 C 9.353,-24.42 9.197,-24.2 9.043,-23.98 l -0.008,0.011 -0.002,0.004 -0.133,0.192 -0.002,0.002 -0.007,0.011 -0.008,0.011 c -0.152,0.222 -0.304,0.443 -0.452,0.667 l -0.008,0.011 -0.01,0.014 -0.029,0.044 -0.007,0.011 c -0.143,0.213 -0.283,0.43 -0.422,0.646 l -0.007,0.01 -0.007,0.011 -0.007,0.012 -0.001,0.002 -0.112,0.174 -0.002,0.004 -0.006,0.01 -0.008,0.012 c -0.144,0.226 -0.286,0.453 -0.427,0.684 l -0.008,0.01 -0.094,0.157 -0.006,0.009 -0.005,0.008 -0.006,0.012 c -0.115,0.186 -0.227,0.373 -0.339,0.563 l -0.005,0.009 -0.006,0.01 -0.12,0.205 -0.007,0.011 -0.007,0.011 -0.006,0.011 c -0.128,0.22 -0.256,0.444 -0.381,0.666 l -0.006,0.011 -0.007,0.011 -0.001,0.002 -0.094,0.167 -0.006,0.011 -0.005,0.01 -0.006,0.009 c -0.116,0.209 -0.23,0.418 -0.344,0.629 l -0.005,0.008 -0.073,0.135 -0.001,0.003 -0.007,0.011 -0.006,0.012 c -0.122,0.229 -0.243,0.459 -0.362,0.69 l -0.005,0.013 -0.007,0.011 -0.002,0.002 -0.114,0.224 -0.003,0.006 -0.004,0.011 -0.006,0.009 c -0.103,0.203 -0.205,0.406 -0.304,0.608 l -0.005,0.012 -0.005,0.009 v 10e-4 l -0.09,0.183 H 4.919 l -0.005,0.011 -0.005,0.011 c -0.103,0.213 -0.205,0.425 -0.304,0.639 l -0.005,0.01 -0.006,0.012 -0.004,0.01 -0.114,0.246 -0.006,0.01 -0.005,0.013 -0.006,0.011 c -0.104,0.225 -0.208,0.454 -0.309,0.68 l -0.004,0.013 -0.005,0.011 -0.083,0.188 -0.004,0.01 -0.004,0.01 -0.004,0.009 -0.005,0.01 -0.004,0.008 -0.004,0.012 c -0.075,0.17 -0.148,0.34 -0.22,0.512 l -0.004,0.009 -0.005,0.01 -0.004,0.008 -0.003,0.012 -0.109,0.256 -0.003,0.006 c -0.101,0.241 -0.2,0.482 -0.296,0.724 l -0.004,0.011 -0.003,0.006 -0.095,0.242 -0.004,0.009 -0.003,0.008 c -0.065,0.166 -0.13,0.333 -0.193,0.499 l -0.003,0.01 -0.004,0.009 -0.007,0.017 -0.004,0.009 -0.003,0.01 -0.003,0.009 -0.096,0.253 -0.002,0.006 -0.004,0.01 c -0.088,0.235 -0.174,0.469 -0.257,0.704 l -0.005,0.012 v 0.003 l -0.105,0.297 -0.003,0.009 -0.003,0.009 -0.003,0.008 -0.003,0.009 -0.004,0.009 -0.003,0.009 c -0.054,0.16 -0.11,0.319 -0.164,0.479 l -0.003,0.009 -0.006,0.018 -0.004,0.008 -0.002,0.012 -0.112,0.331 v 0.003 l -0.004,0.01 -0.003,0.01 -0.003,0.009 c -0.064,0.198 -0.128,0.395 -0.191,0.593 l -0.003,0.01 -0.002,0.005 -0.103,0.335 -0.004,0.01 -0.002,0.011 -0.004,0.01 C 1.901,-9.248 1.838,-9.041 1.776,-8.832 L 1.773,-8.821 1.771,-8.81 1.767,-8.8 1.693,-8.542 1.69,-8.532 1.688,-8.523 1.686,-8.514 1.683,-8.504 1.68,-8.495 C 1.63,-8.321 1.582,-8.146 1.533,-7.971 L 1.53,-7.962 1.527,-7.952 1.525,-7.942 1.522,-7.934 1.438,-7.622 1.435,-7.61 1.432,-7.6 1.43,-7.588 1.426,-7.576 c -0.061,0.227 -0.12,0.455 -0.178,0.683 L 1.245,-6.881 1.171,-6.579 1.17,-6.573 1.168,-6.564 1.166,-6.556 1.164,-6.547 c -0.038,0.154 -0.075,0.309 -0.111,0.464 l -0.003,0.009 -0.006,0.025 -0.001,0.01 -0.003,0.008 -0.002,0.01 -0.003,0.007 -0.066,0.287 -0.002,0.011 -0.003,0.013 -0.002,0.012 c -0.055,0.236 -0.107,0.473 -0.156,0.712 l -0.003,0.011 v 0.001 L 0.738,-4.656 0.737,-4.652 0.736,-4.645 0.734,-4.636 0.731,-4.626 0.73,-4.617 0.63,-4.112 0.627,-4.103 0.626,-4.094 0.625,-4.086 0.624,-4.081 0.623,-4.076 0.622,-4.07 0.62,-4.065 v 0.005 l -0.001,0.003 -0.001,0.005 -0.001,0.006 -0.002,0.005 v 0.005 L 0.614,-4.031 0.613,-4.026 0.569,-3.799 0.568,-3.793 0.567,-3.788 0.566,-3.783 0.565,-3.778 0.564,-3.773 0.563,-3.768 0.562,-3.757 C 0.518,-3.529 0.478,-3.3 0.438,-3.07 l -0.002,0.011 -0.001,0.012 -0.002,0.012 -0.055,0.323 -0.002,0.01 -0.002,0.01 -0.001,0.009 c -0.03,0.179 -0.059,0.358 -0.086,0.536 l -0.002,0.009 -0.001,0.009 -0.001,0.01 -0.002,0.01 -0.001,0.009 -0.062,0.415 -0.001,0.008 -0.001,0.009 -0.002,0.01 -0.001,0.009 -0.069,0.496 -0.001,0.01 -0.002,0.007 v 0.01 l -0.002,0.009 -0.002,0.01 -0.001,0.008 -0.046,0.356 -0.002,0.011 -0.001,0.011 c -0.028,0.223 -0.055,0.446 -0.08,0.667 L 0.006,-0.042 0.004,-0.031 0.003,-0.02 Z m 46.189,57.294 c 0.16,0.017 0.32,0.031 0.48,0.046 z M 40.828,70.869 C 32.433,62.596 24.371,53.639 16.623,44.05 l 0.005,0.005 c 0.643,0.585 1.3,1.152 1.97,1.703 l 0.005,0.003 c 1.558,1.279 3.186,2.464 4.876,3.549 l 0.084,0.054 c 0.698,0.447 1.404,0.876 2.122,1.287 l 0.094,0.055 c 0.722,0.412 1.454,0.809 2.195,1.186 l 0.069,0.036 c 0.246,0.125 0.492,0.248 0.741,0.37 l 0.042,0.019 c 0.486,0.238 0.977,0.467 1.47,0.689 l 0.083,0.037 c 0.235,0.105 0.471,0.209 0.708,0.31 l 0.197,0.085 c 0.705,0.298 1.418,0.584 2.136,0.852 l 0.308,0.112 c 0.69,0.253 1.386,0.492 2.086,0.716 l 0.353,0.112 c 0.209,0.065 0.42,0.129 0.63,0.192 0.122,0.036 0.245,0.071 0.368,0.107 0.348,0.1 0.694,0.197 1.044,0.289 0.146,0.04 0.291,0.079 0.438,0.117 0.194,0.049 0.388,0.098 0.583,0.146 0.161,0.039 0.323,0.077 0.484,0.116 0.296,0.07 0.593,0.137 0.889,0.201 0.179,0.038 0.359,0.078 0.54,0.115 0.185,0.038 0.37,0.074 0.555,0.11 0.181,0.035 0.364,0.069 0.546,0.103 0.167,0.031 0.335,0.062 0.503,0.091 0.311,0.053 0.619,0.105 0.931,0.152 0.171,0.027 0.345,0.052 0.52,0.077 0.188,0.026 0.376,0.052 0.565,0.078 0.167,0.022 0.336,0.044 0.505,0.066 0.306,0.037 0.613,0.072 0.921,0.104 0.16,0.017 0.32,0.031 0.48,0.046 0.222,0.021 0.444,0.042 0.667,0.059 0.154,0.014 0.311,0.027 0.466,0.037 0.257,0.019 0.514,0.036 0.774,0.05 0.175,0.011 0.349,0.02 0.524,0.028 0.271,0.013 0.545,0.024 0.817,0.033 0.142,0.005 0.284,0.008 0.425,0.012 0.255,0.005 0.51,0.008 0.763,0.011 0.12,10e-4 0.239,0.003 0.358,0.003 0.349,10e-4 0.697,-0.003 1.046,-0.009 0.125,-0.003 0.249,-0.006 0.377,-0.01 0.264,-0.007 0.531,-0.016 0.797,-0.027 0.116,-0.004 0.232,-0.008 0.35,-0.014 0.36,-0.018 0.719,-0.038 1.079,-0.064 0.1,-0.007 0.199,-0.014 0.298,-0.022 0.282,-0.022 0.563,-0.045 0.845,-0.072 l 0.364,-0.034 c 0.365,-0.036 0.731,-0.075 1.096,-0.119 l 0.166,-0.021 c 0.324,-0.04 0.65,-0.084 0.974,-0.131 l 0.342,-0.051 c 0.32,-0.048 0.638,-0.099 0.958,-0.152 l 0.185,-0.032 c 0.368,-0.063 0.735,-0.131 1.103,-0.204 l 0.329,-0.066 c 0.301,-0.062 0.603,-0.125 0.903,-0.191 0.086,-0.019 0.17,-0.037 0.255,-0.056 0.369,-0.084 0.739,-0.171 1.107,-0.264 l 0.29,-0.075 c 0.298,-0.076 0.595,-0.154 0.893,-0.236 l 0.292,-0.08 c 0.372,-0.105 0.744,-0.213 1.115,-0.327 l 0.205,-0.064 c 0.313,-0.097 0.625,-0.198 0.941,-0.301 l 0.313,-0.104 c 0.373,-0.126 0.747,-0.256 1.121,-0.391 1.213,-0.429 2.422,-0.862 3.625,-1.301 l 0.046,-0.017 c 1.184,-0.432 2.362,-0.869 3.536,-1.312 l 0.105,-0.039 c 1.158,-0.436 2.309,-0.879 3.457,-1.325 L 80.11,50.41 c 1.143,-0.445 2.281,-0.894 3.412,-1.35 l 0.17,-0.069 c 1.1,-0.441 2.192,-0.887 3.281,-1.339 l 0.278,-0.115 c 1.05,-0.436 2.098,-0.878 3.14,-1.324 l 0.374,-0.159 c 1.012,-0.435 2.022,-0.874 3.027,-1.319 l 0.512,-0.226 c 0.974,-0.432 1.942,-0.866 2.908,-1.306 l 0.513,-0.234 c 0.941,-0.43 1.88,-0.864 2.812,-1.304 l 0.581,-0.272 c 0.915,-0.433 1.824,-0.868 2.732,-1.306 l 0.69,-0.337 c 0.872,-0.425 1.74,-0.852 2.604,-1.285 l 0.694,-0.348 c 0.865,-0.434 1.725,-0.872 2.582,-1.313 l 0.689,-0.358 0.006,-0.002 C 97.471,62.257 68.779,75.772 40.828,70.869"
             style="fill:#516cbe;fill-opacity:1;fill-rule:evenodd;stroke:none"
             id="path16520" />
        </g>
        <g
           id="g16522"
           transform="translate(407.4551,290.3662)">
          <path
             d="M 0,0 C 2.628,3.822 7.45,5.794 12.205,4.576 L 12.969,4.38 c 28.24,-7.254 51.839,-13.315 72.251,12.876 3.86,4.955 11.007,5.843 15.963,1.981 4.954,-3.861 5.84,-11.007 1.979,-15.962 C 77.234,-29.995 50.865,-28.16 20.451,-20.959 14.134,-13.493 7.308,-6.516 0,0"
             style="fill:#4b65b9;fill-opacity:1;fill-rule:evenodd;stroke:none"
             id="path16524" />
        </g>
        <g
           id="g16526"
           transform="translate(452.8447,265.2578)">
          <path
             d="M 0,0 C -10.569,11.404 -22.235,21.363 -34.903,29.988 -39.07,30.4 -43.079,28.47 -45.39,25.108 -38.082,18.593 -31.256,11.615 -24.939,4.149 -16.329,2.111 -8.043,0.503 0,0"
             style="fill:#435cb3;fill-opacity:1;fill-rule:evenodd;stroke:none"
             id="path16528" />
        </g>
        <g
           id="g16530"
           transform="translate(514.8164,379.7085)">
          <path
             d="m 0,0 c 3.365,-5.314 1.785,-12.351 -3.529,-15.716 -5.316,-3.365 -12.351,-1.785 -15.716,3.529 -27.141,42.793 -105.287,22.308 -141.299,2.157 -5.477,-3.06 -12.396,-1.102 -15.458,4.374 -3.06,5.475 -1.102,12.395 4.374,15.456 C -124.105,36.391 -34.862,54.968 0,0 m 11.617,-40.038 c 0.004,-6.286 -5.089,-11.385 -11.374,-11.39 -6.286,-0.005 -11.386,5.087 -11.391,11.373 -0.003,1.843 -0.073,3.733 -0.27,5.566 -0.68,6.23 3.822,11.832 10.052,12.511 6.23,0.679 11.832,-3.822 12.511,-10.052 0.29,-2.671 0.468,-5.319 0.472,-8.008"
             style="fill:#718bcf;fill-opacity:1;fill-rule:evenodd;stroke:none"
             id="path16532" />
        </g>
        <g
           id="g16534"
           transform="translate(292.1016,352.9634)">
          <path
             d="m 0,0 c -32.817,-3.334 -56.717,-32.64 -53.383,-65.457 3.335,-32.817 32.642,-56.716 65.458,-53.381 32.817,3.335 56.716,32.64 53.382,65.457 C 62.122,-20.564 32.814,3.335 0,0"
             style="fill:#d6e1f4;fill-opacity:1;fill-rule:evenodd;stroke:none"
             id="path16536" />
        </g>
        <g
           id="g16538"
           transform="translate(292.9014,345.0801)">
          <path
             d="m 0,0 c -28.462,-2.893 -49.191,-28.311 -46.299,-56.772 2.893,-28.462 28.312,-49.192 56.774,-46.299 28.46,2.892 49.189,28.309 46.298,56.772 C 53.881,-17.837 28.463,2.892 0,0"
             style="fill:#c6d2ef;fill-opacity:1;fill-rule:evenodd;stroke:none"
             id="path16540" />
        </g>
        <g
           id="g16542"
           transform="translate(293.7881,336.3516)">
          <path
             d="m 0,0 c -23.642,-2.402 -40.858,-23.516 -38.456,-47.157 2.402,-23.642 23.515,-40.861 47.156,-38.458 23.642,2.403 40.86,23.516 38.457,47.158 C 44.755,-14.815 23.642,2.402 0,0"
             style="fill:#1e2c54;fill-opacity:1;fill-rule:evenodd;stroke:none"
             id="path16544" />
        </g>
        <g
           id="g16546"
           transform="translate(298.1377,261.9102)">
          <path
             d="M 0,0 C 17.426,0 31.636,14.211 31.636,31.635 31.636,49.059 17.426,63.27 0,63.27 -17.423,63.27 -31.634,49.059 -31.634,31.635 -31.634,14.211 -17.423,0 0,0"
             style="fill:#5a75c3;fill-opacity:1;fill-rule:evenodd;stroke:none"
             id="path16548" />
        </g>
        <g
           id="g16550"
           transform="translate(298.1377,316.4854)">
          <path
             d="m 0,0 2.731,-2.195 3.208,1.413 2.068,-2.827 3.464,0.535 1.268,-3.266 3.483,-0.379 0.379,-3.483 3.267,-1.269 -0.536,-3.463 2.827,-2.07 -1.412,-3.206 2.194,-2.73 -2.194,-2.732 1.412,-3.206 -2.827,-2.07 0.536,-3.463 -3.267,-1.268 -0.379,-3.483 -3.483,-0.379 -1.268,-3.267 -3.464,0.535 -2.068,-2.828 -3.208,1.413 -2.731,-2.194 -2.731,2.194 -3.205,-1.413 -2.071,2.828 -3.463,-0.535 -1.267,3.267 -3.485,0.379 -0.379,3.483 -3.265,1.268 0.535,3.463 -2.827,2.07 1.413,3.206 -2.195,2.732 2.195,2.73 -1.413,3.206 2.827,2.07 -0.535,3.463 3.265,1.269 0.379,3.483 3.485,0.379 1.267,3.266 3.463,-0.535 2.071,2.827 3.205,-1.413 z"
             style="fill:#ffffff;fill-opacity:1;fill-rule:evenodd;stroke:none"
             id="path16552" />
        </g>
      </g>
    </g>
  </g>
</svg>
